<?xml version="1.0" encoding="utf-8"?>
<!-- Generator: Adobe Illustrator 26.0.1, SVG Export Plug-In . SVG Version: 6.00 Build 0)  -->
<svg version="1.1" xmlns="http://www.w3.org/2000/svg" xmlns:xlink="http://www.w3.org/1999/xlink" x="0px" y="0px"
	 viewBox="0 0 128 128" style="enable-background:new 0 0 128 128;" xml:space="preserve">
<style type="text/css">
	.st0{fill:none;stroke:#000000;stroke-width:18;stroke-linecap:round;stroke-miterlimit:10;}
	.st1{display:none;}
	.st2{display:inline;}
</style>
<g id="Layer_1">
	<g>
		<path d="M52,16.5c19.5,0,35.5,15.9,35.5,35.5S71.5,87.5,52,87.5S16.5,71.5,16.5,52S32.5,16.5,52,16.5 M52,0C23.3,0,0,23.3,0,52
			s23.3,52,52,52s52-23.3,52-52S80.7,0,52,0L52,0z"/>
	</g>
	<g>
		<line class="st0" x1="84" y1="84" x2="119" y2="119"/>
	</g>
</g>
<g id="Layer_2" class="st1">
	<path class="st2" d="M102.9,120.6L7.4,25.1c-4.9-4.9-4.9-12.8,0-17.7l0,0c4.9-4.9,12.8-4.9,17.7,0l95.5,95.5
		c4.9,4.9,4.9,12.8,0,17.7l0,0C115.7,125.5,107.8,125.5,102.9,120.6z"/>
	<path class="st2" d="M7.4,102.9l95.5-95.5c4.9-4.9,12.8-4.9,17.7,0l0,0c4.9,4.9,4.9,12.8,0,17.7l-95.5,95.5
		c-4.9,4.9-12.8,4.9-17.7,0l0,0C2.5,115.7,2.5,107.8,7.4,102.9z"/>
</g>
</svg>
